<svg width="1600" height="467" viewBox="0 0 1600 467" fill="none" xmlns="http://www.w3.org/2000/svg">
<g clip-path="url(#clip0_1_2)">
<path d="M1347.09 1C1349.63 19 1365.5 32.63 1382.53 39C1399.56 45.37 1418.09 46.16 1436.05 49C1454.01 51.84 1472.63 57.4 1484.93 70.8C1506.81 94.66 1500.4 131.72 1503.81 163.86C1508.98 212.56 1541.86 257.34 1586.81 276.86" stroke="#C1A230" stroke-opacity="0.4" stroke-miterlimit="10"/>
<path d="M1337.73 9.12988C1340.27 27.1299 1356.13 40.7599 1373.17 47.1299C1390.21 53.4999 1408.72 54.2899 1426.69 57.1299C1444.66 59.9699 1463.27 65.5299 1475.57 78.9299C1497.44 102.79 1491.03 139.86 1494.45 172.03C1499.62 220.73 1532.45 265.51 1577.4 285.03" stroke="#C1A230" stroke-opacity="0.4" stroke-miterlimit="10"/>
<path d="M1328.37 17.2598C1330.9 35.2598 1346.77 48.8898 1363.8 55.2598C1380.83 61.6298 1399.36 62.4198 1417.32 65.2598C1435.28 68.0998 1453.91 73.6598 1466.2 87.0598C1488.08 110.91 1481.67 147.97 1485.08 180.15C1490.25 228.84 1523.08 273.63 1568.08 293.15" stroke="#C1A230" stroke-opacity="0.4" stroke-miterlimit="10"/>
<path d="M1319 25.3896C1321.54 43.3896 1337.4 57.0196 1354.44 63.3896C1371.48 69.7596 1389.99 70.5496 1407.96 73.3896C1425.93 76.2296 1444.54 81.7797 1456.84 95.1897C1478.71 119.05 1472.26 156.11 1475.72 188.29C1480.89 236.98 1513.72 281.77 1558.67 301.29" stroke="#C1A230" stroke-opacity="0.4" stroke-miterlimit="10"/>
<path d="M593 25.3149C634.56 25.2649 675.76 44.4049 702.53 76.2049C725.74 103.785 737.7 139.005 757.61 169.045C777.52 199.085 811.15 225.445 846.61 218.845C870.94 214.315 890.28 194.915 901.72 172.965C913.16 151.015 918.11 126.395 924.24 102.415C930.37 78.4349 938.15 54.0949 954 35.0849C974.1 10.9949 1006.73 -2.00509 1037.89 1.66491" stroke="#C1A230" stroke-opacity="0.4" stroke-miterlimit="10"/>
<path d="M606.92 23.795C626.455 23.9015 645.738 28.2154 663.457 36.4431C681.176 44.6708 696.914 56.6191 709.6 71.475C731.36 97.325 742.6 130.335 761.23 158.475C779.86 186.615 811.42 211.345 844.64 205.155C867.45 200.905 885.57 182.715 896.3 162.155C907.03 141.595 911.67 118.495 917.41 96.025C923.15 73.555 930.41 50.725 945.31 32.905C964.15 10.325 994.74 -1.86498 1023.95 1.57502" stroke="#C1A230" stroke-opacity="0.4" stroke-miterlimit="10"/>
<path d="M620.84 22.2749C639.072 22.3751 657.069 26.4038 673.604 34.0864C690.14 41.769 704.825 52.9251 716.66 66.7949C736.97 90.9249 747.43 121.735 764.85 148.025C782.27 174.315 811.69 197.355 842.69 191.585C863.97 187.585 880.89 170.645 890.9 151.445C900.91 132.245 905.24 110.705 910.6 89.7249C915.96 68.7449 922.77 47.4549 936.6 30.8249C945.524 20.34 956.876 12.1951 969.667 7.09895C982.458 2.0028 996.3 0.109863 1009.99 1.58486" stroke="#C1A230" stroke-opacity="0.4" stroke-miterlimit="10"/>
<path d="M634.76 20.7548C651.694 20.8439 668.411 24.5829 683.769 31.7169C699.128 38.8509 712.768 49.2123 723.76 62.0948C742.58 84.4748 752.3 113.105 768.47 137.475C784.64 161.845 811.96 183.285 840.74 177.925C860.5 174.245 876.21 158.485 885.5 140.655C894.79 122.825 898.82 102.825 903.8 83.3548C908.78 63.8848 915.09 44.1348 927.97 28.6948C936.258 18.9626 946.798 11.4022 958.673 6.67054C970.549 1.93891 983.4 0.179332 996.11 1.54477" stroke="#C1A230" stroke-opacity="0.4" stroke-miterlimit="10"/>
<path d="M648.68 19.2449C664.304 19.3292 679.726 22.7806 693.896 29.3641C708.066 35.9476 720.649 45.5084 730.79 57.3949C748.2 78.0649 757.16 104.465 772.09 126.995C787.02 149.525 812.22 169.275 838.79 164.325C857.03 160.925 871.53 146.375 880.1 129.925C888.67 113.475 892.39 95.0149 896.99 77.0349C901.59 59.0549 907.41 40.8149 919.3 26.5649C926.946 17.576 936.672 10.5914 947.633 6.21863C958.593 1.84586 970.456 0.217413 982.19 1.47494" stroke="#C1A230" stroke-opacity="0.4" stroke-miterlimit="10"/>
<path style="mix-blend-mode:multiply" opacity="0.2" d="M851 1C843.841 7.11535 826.067 12.8877 799.252 17.8052C746.045 27.4248 669.918 115.297 583.5 114.5C574.318 114.415 559 114.707 548 114.5C499.462 113.585 465.044 66.646 421.5 69.5C384.53 71.9145 341.725 39.7003 308.359 42.9962C264.712 47.3062 205.962 48.0112 155.192 45.7126C104.423 43.4139 61.4281 38.3603 30.0018 32.2973C19.1373 30.2015 9.52573 27.9801 0 25.7515V1H851Z" fill="url(#paint0_linear_1_2)"/>
<g style="mix-blend-mode:overlay">
<path d="M964.23 1C957.961 6.89396 950.623 11.5341 942.61 14.67C928 20.32 911.53 21.4 898.27 29.73C880.8 40.73 872.68 61.8 868.27 81.94C863.86 102.08 861.89 123.3 852 141.38C831.42 178.89 780.25 191.78 739.68 178.19C712.68 169.12 690.11 150.87 671.92 128.62C662.85 117.423 654.798 105.439 647.86 92.81C632.22 64.56 620.75 33.45 599.3 9.32C596.68 6.37768 593.881 3.59911 590.92 1H964.23Z" fill="#F4D779" fill-opacity="0.3"/>
</g>
<g style="mix-blend-mode:overlay">
<path d="M583.649 164.315C587.799 145.956 576.282 127.709 557.923 123.558C539.565 119.407 521.317 130.925 517.167 149.283C513.016 167.642 524.534 185.889 542.892 190.04C561.251 194.191 579.498 182.673 583.649 164.315Z" fill="#F3C730" fill-opacity="0.1"/>
</g>
<g style="mix-blend-mode:overlay">
<path d="M1600 189.905V466H1202C1203.3 454.324 1205.79 442.809 1209.42 431.633C1221.83 393.693 1248.76 360.478 1282.9 340.134C1300.93 329.252 1321.08 322.352 1342 319.899C1369.34 316.846 1400.16 320.529 1421.24 302.878C1433.95 292.212 1440.07 276.028 1448.01 261.517C1470.51 220.188 1512.89 188.569 1559.88 185.245C1573.42 184.346 1587.02 185.925 1600 189.905Z" fill="#F4D779" fill-opacity="0.3"/>
</g>
<path d="M1123.61 465.246C1116.73 440.146 1111.71 412.786 1121.33 388.606C1133.93 356.926 1168.88 339.176 1202.73 335.116C1236.58 331.056 1270.67 337.766 1304.67 340.356C1338.67 342.946 1375.08 340.696 1403.11 321.276C1441.97 294.336 1454.73 241.836 1489.8 210.106C1519.04 183.656 1563.18 174.936 1600.28 188.276" stroke="#C1A230" stroke-opacity="0.4" stroke-miterlimit="10"/>
<path d="M1149.37 465.246C1142.86 441.496 1138.12 415.626 1147.21 392.746C1159.13 362.746 1192.21 345.986 1224.21 342.146C1256.21 338.306 1288.49 344.706 1320.61 347.096C1352.73 349.486 1387.22 347.426 1413.73 329.096C1450.49 303.606 1462.56 253.946 1495.73 223.926C1523.4 198.926 1565.15 190.656 1600.25 203.276" stroke="#C1A230" stroke-opacity="0.4" stroke-miterlimit="10"/>
<path d="M1175.12 465.245C1168.99 442.855 1164.51 418.455 1173.12 396.885C1184.35 368.625 1215.53 352.795 1245.72 349.175C1275.91 345.555 1306.32 351.535 1336.65 353.845C1366.98 356.155 1399.45 354.155 1424.45 336.845C1459.12 312.845 1470.45 265.995 1501.77 237.695C1527.86 214.095 1567.23 206.315 1600.32 218.215" stroke="#C1A230" stroke-opacity="0.4" stroke-miterlimit="10"/>
<path d="M1200.87 465.245C1195.11 444.245 1190.87 421.245 1198.96 401.025C1209.52 374.475 1238.8 359.605 1267.17 356.205C1295.54 352.805 1324.1 358.425 1352.59 360.595C1381.08 362.765 1411.59 360.885 1435.07 344.595C1467.64 322.025 1478.33 278.025 1507.71 251.445C1532.21 229.275 1569.2 221.965 1600.29 233.155" stroke="#C1A230" stroke-opacity="0.4" stroke-miterlimit="10"/>
<path d="M1226.61 465.246C1221.22 445.566 1217.29 424.126 1224.82 405.166C1234.7 380.326 1262.1 366.416 1288.64 363.236C1315.18 360.056 1341.9 365.316 1368.55 367.336C1395.2 369.356 1423.75 367.616 1445.71 352.386C1476.18 331.266 1486.18 290.106 1513.71 265.236C1536.61 244.496 1571.21 237.706 1600.29 248.126" stroke="#C1A230" stroke-opacity="0.4" stroke-miterlimit="10"/>
<path style="mix-blend-mode:soft-light" d="M926.93 466.1H441C442.517 452.362 445.853 438.888 450.92 426.03C462.64 396.11 486.08 367.6 517.92 363.03C531.64 361.03 545.12 363.73 558.17 368.57C567.294 371.932 577.234 372.392 586.628 369.885C596.023 367.379 604.414 362.03 610.65 354.57C623.622 338.977 641.754 328.549 661.755 325.179C681.757 321.809 702.304 325.719 719.67 336.2C726.276 340.292 732.495 344.978 738.25 350.2C754.95 364.93 769.96 382.15 790.99 388.55C812.86 395.18 836.76 388.55 859.17 393C892.02 399.57 916.17 429.53 925.7 461.65C926.14 463.123 926.55 464.606 926.93 466.1Z" fill="url(#paint1_linear_1_2)" fill-opacity="0.2"/>
<path d="M40.1405 97C35.1405 114.49 44.0605 133.39 57.0205 146.15C69.9805 158.91 86.5805 167.15 101.82 177.09C117.06 187.03 131.82 199.66 137.58 216.91C147.84 247.6 126.89 278.84 116.9 309.62C101.78 356.19 113.56 410.49 146.62 446.62" stroke="#C1A230" stroke-opacity="0.5" stroke-miterlimit="10"/>
<path d="M28.2804 100.61C23.2804 118.1 32.2004 136.99 45.1604 149.75C58.1204 162.51 74.7104 170.75 89.9604 180.69C105.21 190.63 119.96 203.27 125.72 220.52C135.98 251.21 115.03 282.45 105.04 313.23C89.9204 359.8 101.7 414.1 134.76 450.23" stroke="#C1A230" stroke-opacity="0.5" stroke-miterlimit="10"/>
<path d="M16.4104 104.22C11.4104 121.7 20.3304 140.6 33.3004 153.36C46.2704 166.12 62.8504 174.36 78.1004 184.3C93.3504 194.24 108.1 206.88 113.85 224.13C124.12 254.82 103.16 286.06 93.1704 316.84C78.0604 363.41 89.8404 417.71 122.89 453.84" stroke="#C1A230" stroke-opacity="0.5" stroke-miterlimit="10"/>
<path d="M7.41051 113.51C2.41051 130.99 11.3305 149.89 24.2905 162.65C37.2505 175.41 53.8505 183.65 69.0905 193.59C84.3305 203.53 99.0905 216.17 104.851 233.42C115.111 264.11 94.1605 295.35 84.1705 326.13C69.0305 372.7 80.8105 427.05 113.871 463.12" stroke="#C1A230" stroke-opacity="0.5" stroke-miterlimit="10"/>
</g>
<defs>
<linearGradient id="paint0_linear_1_2" x1="0" y1="24.001" x2="851" y2="24.001" gradientUnits="userSpaceOnUse">
<stop stop-color="#C1A230"/>
<stop offset="1" stop-color="#F4D779"/>
</linearGradient>
<linearGradient id="paint1_linear_1_2" x1="441" y1="395.15" x2="926.93" y2="395.15" gradientUnits="userSpaceOnUse">
<stop stop-color="#C1A230"/>
<stop offset="1" stop-color="#F6CF4E"/>
</linearGradient>
<clipPath id="clip0_1_2">
<rect width="1600" height="467" fill="white"/>
</clipPath>
</defs>
</svg>
