<svg width="50" height="57" viewBox="0 0 50 57" fill="none" xmlns="http://www.w3.org/2000/svg">
<g clip-path="url(#clip0_1_29)">
<g filter="url(#filter0_i_1_29)">
<path d="M0 22.024C0 18.1984 5.62892 10.4402 5 6.66667C3.71508 -1.04283 5.46803 -0.827483 7.47554 1.20306C10.4391 4.20057 14.0791 6.66667 18.2943 6.66667H31.8246C35.7 6.66667 39.1789 4.62918 41.9766 1.94748C44.2927 -0.272515 46.4131 -0.985955 44.5 6.66667C43.4232 10.9737 50 17.3727 50 21.8123V45.3155C50 51.5846 44.9179 56.6667 38.6488 56.6667H9.54915C4.2753 56.6667 0 52.3914 0 47.1175V22.024Z" fill="white"/>
</g>
<path fill-rule="evenodd" clip-rule="evenodd" d="M19.3354 18.109C15.9622 18.9932 14.6622 24.718 17.0964 27.9685C19.8567 31.6543 24.5464 29.0628 24.5464 23.8518C24.5464 20.1071 22.0804 17.3895 19.3354 18.109ZM28.6329 18.0811C24.9159 19.099 23.7955 25.3693 26.7775 28.4648C29.9533 31.7618 34.4657 28.0218 33.7263 22.7053C33.299 19.6336 30.904 17.4592 28.6329 18.0811ZM12.7019 26.7568C9.17376 27.7057 9.07176 34.5373 12.5694 35.6329C14.4645 36.2264 16.246 34.8522 16.7515 32.4067C17.4289 29.1291 15.2395 26.0744 12.7019 26.7568ZM35.8419 26.758C33.4854 27.3913 32.3733 31.0757 33.7171 33.7969C35.1449 36.688 38.6503 36.3097 39.7093 33.1504C40.8742 29.6756 38.6521 26.0028 35.8419 26.758ZM23.3594 30.4774C20.6581 30.8199 18.2128 32.3556 17.0224 34.4572C16.8854 34.6989 16.6639 35.0417 16.5301 35.2189C14.293 38.1821 14.5789 42.378 17.1028 43.6249C18.2587 44.1958 19.1794 43.9742 21.5473 42.5551C23.2595 41.5288 23.5162 41.4203 24.3125 41.3859C25.7815 41.3225 26.0813 41.4266 28.0176 42.6721C30.204 44.0784 31.1206 44.3037 32.2932 43.7227C34.7903 42.4853 35.2045 38.4211 33.1449 35.3654C32.9928 35.1398 32.8082 34.8366 32.7346 34.6916C31.2466 31.7601 27.2855 29.9796 23.3594 30.4774Z" fill="#F26C3F"/>
</g>
<defs>
<filter id="filter0_i_1_29" x="0" y="0" width="50" height="56.6667" filterUnits="userSpaceOnUse" color-interpolation-filters="sRGB">
<feFlood flood-opacity="0" result="BackgroundImageFix"/>
<feBlend mode="normal" in="SourceGraphic" in2="BackgroundImageFix" result="shape"/>
<feColorMatrix in="SourceAlpha" type="matrix" values="0 0 0 0 0 0 0 0 0 0 0 0 0 0 0 0 0 0 127 0" result="hardAlpha"/>
<feOffset/>
<feGaussianBlur stdDeviation="2"/>
<feComposite in2="hardAlpha" operator="arithmetic" k2="-1" k3="1"/>
<feColorMatrix type="matrix" values="0 0 0 0 0 0 0 0 0 0 0 0 0 0 0 0 0 0 0.25 0"/>
<feBlend mode="normal" in2="shape" result="effect1_innerShadow_1_29"/>
</filter>
<clipPath id="clip0_1_29">
<rect width="50" height="57" fill="white"/>
</clipPath>
</defs>
</svg>
